<?xml version="1.0" encoding="UTF-8"?>
<svg version="1.1" viewBox="0 0 1080 924" width="1280" height="1280" xmlns="http://www.w3.org/2000/svg">
<path transform="translate(0)" d="m0 0h1080v924h-1080z" fill="#FBFDFD"/>
<path transform="translate(744,87)" d="m0 0h55l1 1v18l-3 20-5 12-7 11-7 8-11 9-14 10-10 7-20 10-20 7-42 14v6l11 12 6 8 8 13 8 15 6 11 6 12 3 5 6 12 8 20 3 14v27l-3 15-6 19-7 14-3 2-4 7-12 18-22 22-13 10-11 8-5 1-1 3-8 5-8 7-11 6-10 6-17 8-12 5-18 8-30 11-39 12-9 4-17 4-15 4-13 3-20 3-17 3-35 6-42 5-29 2h-22l-13-2-8-4-2-2-2-9v-8l3-15 4-9 8-13 4-6 8-7 16-12 11-8 7-5 29-13 42-14 9-4-1-5-4-6v-2h-2l-7-9-6-11-3-4-4-10-5-9-3-5-7-12-6-8v-2h-2l-11-22-5-13-3-15-1-8v-19l3-17 4-12 5-10 9-13 8-10 2-3h2l2-4 16-16 4-2 4-4h2l2-4 16-11 11-6 3-3 7-4 14-10 10-5 10-6 15-6 15-7 21-9 16-5 7-3 48-16 29-7 22-5 20-4 26-3 35-4 23-2z" fill="#03528F"/>
<path transform="translate(764,626)" d="m0 0h10l2 2-1 13-4 10-7 11-7 6-9 6-5 2-71 1-9 3 1 6 5 3 73 1 10 4 8 6v2l4 2 5 7 5 10 3 13v37l-3 10-4 7-1 4h-2l-2 5-10 8-13 7-6 1h-125l-2-1v-9l3-11 6-12 12-12 11-6 7-1 68-1 6-1 1-5-1-3-7-3-71-1-10-4-10-7-7-9-6-12-2-7-1-14v-26l4-12 4-9 4-6h2l2-4 9-7 7-3z" fill="#03528F"/>
<path transform="translate(278,626)" d="m0 0h128l4 3-1 7-3 11-9 15h-2l-2 4-5 4-11 5-4 1-71 1-6 3v7l6 2 72 1 8 3 7 3 5 5 6 7 4 8 4 10 2 10v34l-3 9-4 8-3 7-7 8-7 4-12 6-6 1h-125l-1-1v-8l3-12 5-10 10-12 12-7 7-2 71-1 5-2 1-5-3-3-4-2-73-1-16-8-8-9-5-8-3-7-2-8-1-9v-30l5-15 6-10 10-11 8-4z" fill="#03528F"/>
<path transform="translate(418,626)" d="m0 0h175l2 2-1 9-6 16-7 9-11 8-8 4-4 1-18 1-5 2-3 4-1 4-1 125-1 1h-46l-2-5-1-122-4-7-4-2-20-1-7-3-10-6-8-7-6-9-3-9-2-8 1-6z" fill="#03528F"/>
<path transform="translate(599,279)" d="m0 0 5 5 2 8 2 17v24l-4 3-24 6-25 4-25 1-3-3 1-46 3-4 25-3 17-4 6-3 13-4z" fill="#FBFDFD"/>
<path transform="translate(453,281)" d="m0 0 11 1 17 6 12 3 22 3 1 1 1 18v31l-1 2h-21l-21-3-23-5-6-2-1-1v-21l4-28z" fill="#FBFDFD"/>
<path transform="translate(600,346)" d="m0 0h7l1 1v15l-1 15-3 8-7 7-11 4-8 1h-22l-23-3-4-2-1-1-1-18 1-15 1-1 16-2 25-2 17-4 6-2z" fill="#FBFDFD"/>
<path transform="translate(445,348)" d="m0 0h8l42 6 16 2 5 2v20l-1 14-3 2-14 2-15 3-18 6-12 2-3-1-2-10-4-39v-8z" fill="#FBFDFD"/>
<path transform="translate(395,330)" d="m0 0 8 1 16 7 12 5 3 4 2 21 5 38v6l-4 5-7 3-11 8-6-1-3-5-2-8-6-17-4-14-2-8-2-9-1-10v-24z" fill="#FBFDFD"/>
<path transform="translate(582,235)" d="m0 0h7l3 7 5 18 1 7-6 4-19 7-12 4-14 2h-19l-1-2v-26l1-5 31-9 11-4z" fill="#FBFDFD"/>
<path transform="translate(379,346)" d="m0 0h5l2 29 6 25 4 10 3 5 6 15 1 10-5 5-4 3h-7l-9-11-10-16-11-22v-15l3-9 7-17 8-11z" fill="#FBFDFD"/>
<path transform="translate(633,256)" d="m0 0h6l7 15 3 5 3 9 4 20 1 9-5 5-9 4-20 7-4-1-2-10-5-35-1-12 11-9 6-4z" fill="#FBFDFD"/>
<path transform="translate(656,233)" d="m0 0 5 1v2l4 2 7 10 10 15 4 11-1 14-3 9-9 11-5 1-3-3-7-32-6-13-4-10-1-1v-7l7-9z" fill="#FBFDFD"/>
<path transform="translate(513,403)" d="m0 0 4 2v16l-3 3-26 7-9 4-7 3-10 1-4-4-3-10v-7l12-6 7-3 17-4z" fill="#FBFDFD"/>
<path transform="translate(652,329)" d="m0 0h5l1 6-4 8-5 7-8 6-4 4-8 7-9 7h-2l-1-6 1-24 2-3 24-9z" fill="#FBFDFD"/>
<path transform="translate(513,257)" d="m0 0 4 4v20l-2 3h-11l-19-3-12-5 1-5 20-9 13-4z" fill="#FBFDFD"/>
<path transform="translate(432,293)" d="m0 0 5 1-1 19-2 17-1 1-7-1-16-6-5-2-1-4 8-8 11-10z" fill="#FBFDFD"/>
<path transform="translate(613,226)" d="m0 0h8l6 5 3 7v7l-4 5-6 4-7 6-5-1-2-3-6-22v-4z" fill="#FBFDFD"/>
<path transform="translate(440,425)" d="m0 0 5 1 2 3 2 11-4 4-8 3-4 1h-7l-5-5 1-5 6-5h2l2-5z" fill="#FBFDFD"/>
<path transform="translate(531,403)" d="m0 0 18 1 3 1-1 4-17 8h-5l-1-1v-11z" fill="#FBFDFD"/>
<path transform="translate(641,219)" d="m0 0 7 1 1 5-5 5-7 1-3-2-1-7 2-2z" fill="#FBFDFD"/>
</svg>
